<svg xmlns="http://www.w3.org/2000/svg" width="512" height="512" viewBox="0 0 512 512" version="1.1">
	<path d="M 340 71.084 C 335.325 71.535, 326.100 72.402, 319.500 73.013 C 312.900 73.623, 303 74.803, 297.500 75.636 C 289.533 76.843, 270.020 77.315, 201.500 77.958 C 128.241 78.645, 113.951 79.015, 105.042 80.456 C 99.290 81.386, 93.102 82.766, 91.292 83.523 L 88 84.898 88 259.005 L 88 433.112 92.315 435.021 C 102.567 439.556, 110.686 440.214, 162 440.671 C 188.675 440.908, 225.575 440.699, 244 440.205 C 276.289 439.341, 278.042 439.391, 292.500 441.594 C 310.961 444.406, 349.228 449, 354.197 449 C 358.878 449, 361 446.843, 361 442.086 L 361 438.315 378.250 437.660 C 387.738 437.301, 399.832 437.005, 405.128 437.003 C 412.860 437.001, 415.025 436.675, 416.128 435.347 C 417.276 433.962, 417.556 405.304, 417.841 259.509 C 418.158 98.154, 418.060 85.203, 416.520 83.663 C 415.052 82.195, 411.704 82, 387.929 82 L 361 82 361 78.934 C 361 75.712, 359.457 72.005, 357.600 70.765 C 356.290 69.890, 351.497 69.977, 340 71.084 M 325.500 82.525 C 321.242 84.091, 190.375 97, 178.768 97 C 174.768 97, 171.843 97.484, 171.207 98.251 C 170.503 99.099, 170.062 150.586, 169.835 258.501 L 169.500 417.500 199 420.713 C 271.254 428.583, 285.508 430.226, 301.500 432.533 C 310.850 433.882, 322.352 435.275, 327.060 435.629 C 335.616 436.272, 335.622 436.271, 339.207 433.124 C 346.756 426.495, 346.184 440.573, 346.315 258 L 346.432 94.500 344.244 90.345 C 340.963 84.114, 337.710 81.985, 331.615 82.079 C 328.802 82.122, 326.050 82.323, 325.500 82.525 M 154.094 85.387 C 152.765 86.989, 151.673 365.563, 152.828 408.500 C 153.489 433.090, 153.535 433.505, 155.653 433.807 C 157.003 433.999, 158.403 433.263, 159.403 431.834 C 160.850 429.768, 161 413.470, 161 257.813 C 161 89.040, 160.967 86.052, 159.066 85.035 C 156.491 83.657, 155.469 83.729, 154.094 85.387 M 360.667 96.667 C 359.834 97.500, 359.775 419.249, 360.607 421.418 C 362.077 425.250, 368.964 422.031, 372.891 415.676 C 378.004 407.403, 377.863 411.740, 378.066 256.276 C 378.239 122.864, 378.123 111.187, 376.579 107.514 C 374.462 102.473, 371.389 99.121, 367.282 97.371 C 363.747 95.865, 361.688 95.645, 360.667 96.667 M 391.785 102.250 C 390.751 104.061, 390.548 134.705, 390.749 259.463 C 391.022 429.953, 390.615 419.380, 396.776 415.976 C 400.320 414.019, 402.924 408.578, 404.053 400.769 C 404.561 397.260, 404.969 332.307, 404.980 253.218 C 404.998 127.930, 404.825 111.516, 403.452 108.232 C 400.226 100.511, 394.466 97.557, 391.785 102.250 M 119.795 116.044 C 116.108 116.474, 112.620 117.117, 112.045 117.472 C 110.719 118.292, 110.599 163.634, 111.921 164.451 C 113.543 165.453, 132.880 163.774, 133.203 162.603 C 133.370 161.996, 133.362 151.037, 133.186 138.250 L 132.865 115 129.682 115.131 C 127.932 115.204, 123.483 115.615, 119.795 116.044 M 253.322 121.250 C 252.884 121.938, 251.560 125.650, 250.379 129.500 C 249.199 133.350, 246.626 140.100, 244.661 144.500 C 238.657 157.943, 237.552 173.687, 241.925 183.500 C 242.906 185.700, 245.349 189.275, 247.354 191.445 L 251 195.391 251.014 216.445 C 251.021 228.025, 251.299 238.512, 251.630 239.750 C 252.694 243.721, 250.308 242.171, 246.481 236.405 L 242.767 230.810 244.018 224.913 C 247.372 209.111, 243.160 197.982, 228.731 184.518 C 219.132 175.560, 217.121 172.006, 217.044 163.857 C 216.999 159.108, 215.589 157.453, 212.575 158.610 C 210.437 159.430, 210.104 164.212, 210.354 190.500 C 210.565 212.730, 210.747 214.917, 212.828 220.157 C 218.480 234.393, 227.320 240.212, 236.232 235.562 L 238.964 234.137 244.883 242.986 C 251.751 253.254, 253.787 260.239, 254.630 276.429 L 255.154 286.500 250.976 277.500 C 248.677 272.550, 245.332 265.327, 243.542 261.448 C 239.434 252.548, 235.298 247.826, 228.759 244.567 C 222.789 241.592, 216.946 241.280, 209.505 243.537 C 202.735 245.590, 199.487 244.694, 196.311 239.894 C 193.780 236.069, 190.193 234.144, 188.057 235.465 C 186.303 236.549, 186.845 238.720, 189.995 243.221 C 191.642 245.574, 195.023 253.125, 197.508 260 C 203.163 275.641, 205.986 281.455, 210.469 286.693 C 222.188 300.384, 238.761 296.092, 244.030 278 C 244.684 275.754, 245.119 276.278, 248.307 283.148 C 250.260 287.355, 252.800 293.850, 253.953 297.582 C 256.210 304.890, 258.653 323.697, 257.490 324.817 C 257.100 325.193, 256.043 324.392, 255.141 323.038 C 245.090 307.959, 233.369 300.477, 223.824 303.047 C 216.849 304.926, 207.886 315.286, 210.755 318.155 C 212.116 319.516, 214.636 318.526, 219.246 314.822 C 223.230 311.621, 230.298 311.812, 236.218 315.282 C 244.953 320.401, 255.360 334.440, 258.443 345.262 C 259.264 348.143, 260.629 356.350, 261.477 363.500 C 263.625 381.619, 263.728 382, 266.457 382 C 270.546 382, 270.931 380.310, 269.421 369 C 266.879 349.968, 266.515 338.839, 268.320 335.348 C 270.337 331.447, 278.778 323.808, 283.599 321.520 C 289.064 318.927, 296.498 319.828, 302.754 323.842 C 305.738 325.757, 308.390 326.788, 309.368 326.412 C 314.280 324.528, 307.604 314.797, 298.801 311.010 C 289.810 307.142, 282.052 309.616, 270.736 319.959 C 267.734 322.702, 264.991 324.658, 264.640 324.306 C 264.288 323.954, 264 319.842, 264 315.166 C 264 307.289, 264.264 306.184, 267.605 300.083 C 269.587 296.462, 271.345 293.355, 271.510 293.178 C 271.676 293, 274.528 294.965, 277.849 297.544 C 285.440 303.439, 290.195 304.262, 297.789 300.996 C 307.637 296.759, 314.422 286.633, 319.986 267.865 C 324.166 253.766, 328.003 245.881, 332.384 242.385 C 336.379 239.197, 336.766 237.909, 334.429 235.571 C 331.841 232.984, 330.138 233.701, 323.315 240.250 L 316.802 246.500 311.151 246.101 C 297.249 245.121, 293.576 245.472, 288.863 248.235 C 279.671 253.621, 274.476 261.388, 271.026 274.898 C 268.371 285.297, 265.320 293.490, 263.557 294.952 C 261.657 296.529, 261.029 291.850, 260.877 275 C 260.765 262.537, 260.981 260.836, 263.682 252.860 C 266.599 244.245, 266.615 244.224, 269.054 245.574 C 272.674 247.580, 280.456 247.318, 284.918 245.042 C 289.584 242.661, 296.114 235.436, 298.768 229.716 C 301.721 223.353, 302.924 216.885, 303.977 201.719 C 305.098 185.567, 306.929 180.154, 312.355 176.953 C 316.626 174.433, 317.295 172.867, 315.312 170.035 C 313.203 167.024, 309.933 167.987, 303.062 173.644 C 300.067 176.109, 293.785 179.955, 289.101 182.190 C 274.260 189.274, 264.737 201.299, 261.901 216.537 C 261.226 220.165, 261.057 226.285, 261.470 232.169 C 262.010 239.860, 261.794 243.102, 260.416 248.013 C 259.078 252.783, 258.475 253.812, 257.763 252.541 C 256.371 250.053, 255.697 219.023, 256.756 206.201 C 257.675 195.083, 257.748 194.842, 261.296 191.201 C 266.035 186.336, 268.930 179.557, 269.675 171.576 C 270.456 163.215, 268.817 155.066, 263.899 142.871 C 261.744 137.523, 259.778 131.878, 259.532 130.324 C 259.285 128.771, 258.820 125.813, 258.497 123.750 C 258.057 120.942, 257.433 120, 256.014 120 C 254.971 120, 253.760 120.563, 253.322 121.250 M 256.118 158.809 C 256.042 164.789, 256.358 167.897, 257 167.500 C 258.142 166.794, 258.142 156.988, 257 152.500 C 256.473 150.427, 256.200 152.378, 256.118 158.809 M 288.252 198.390 C 281.944 205.133, 277.195 213.683, 276.328 219.858 L 275.816 223.500 279.457 219.500 C 282.617 216.030, 283.009 215.831, 282.420 218 C 282.046 219.375, 280.621 222.728, 279.252 225.451 L 276.763 230.401 279.131 228.868 C 282.440 226.725, 289.133 213.045, 292.300 201.950 C 293.764 196.823, 294.808 192.475, 294.620 192.287 C 294.433 192.100, 291.567 194.846, 288.252 198.390 M 222.607 199 C 224.395 205.285, 228.704 215.545, 230.798 218.500 C 232.079 220.309, 232.154 220.071, 231.576 216 C 230.932 211.467, 225.586 199.211, 222.634 195.500 C 221.178 193.670, 221.176 193.967, 222.607 199 M 114.740 209.691 C 113.087 210.123, 112.996 212.989, 113.240 256.825 L 113.500 303.500 123.250 303.786 L 133 304.072 133 256.536 L 133 209 124.750 209.116 C 120.213 209.180, 115.708 209.439, 114.740 209.691 M 210.625 264.085 C 219.454 275.244, 230.449 280.557, 236.502 276.591 C 240.057 274.262, 239.643 272.547, 234.215 267.120 C 228.696 261.601, 223.018 259.294, 212.558 258.322 L 205.549 257.671 210.625 264.085 M 303.424 262.057 C 297.399 264.375, 291.111 269.526, 286.986 275.520 C 283.234 280.974, 283.146 282.728, 286.750 280.232 C 292.179 276.473, 292.642 276.359, 290.750 279.253 C 288.188 283.171, 288.503 284.069, 292.007 282.848 C 295.720 281.553, 304.731 271.748, 308.396 265.013 C 311.484 259.340, 311.092 259.107, 303.424 262.057 M 112.494 348.156 C 112.203 348.913, 112.086 361.449, 112.233 376.016 L 112.500 402.500 117.387 403.706 C 120.074 404.369, 124.799 405.044, 127.887 405.206 L 133.500 405.500 133.781 379.500 C 133.936 365.200, 133.830 352.550, 133.547 351.390 C 133.108 349.592, 132.031 349.181, 126.266 348.612 C 122.545 348.245, 118.042 347.683, 116.261 347.363 C 114.010 346.959, 112.860 347.201, 112.494 348.156" stroke="none" fill="white" fill-rule="evenodd"/>
</svg>